<svg width="200" height="200" viewBox="0 0 200 200" fill="none" xmlns="http://www.w3.org/2000/svg">
<path d="M74.6942 145.591C94.9591 123.588 114.553 60.3137 68.9794 18.3387C23.4056 -23.6363 -20.0804 20.643 30.5821 67.3047" fill="#AF773F"/>
<path d="M130.98 18.3434C128.449 20.6667 126.052 23.1302 123.798 25.7223C116.059 23.3722 108.016 22.1782 99.9293 22.1789C56.5469 22.1789 21.3789 56.2735 21.3789 92.5746C21.3789 97.4567 22.016 102.214 23.2238 106.792C25.4484 115.224 26.4855 123.918 26.5086 132.638C26.5089 132.755 26.5098 132.871 26.5113 132.988C26.7414 150.002 40.632 163.902 57.6453 164.141C65.966 164.257 73.5598 161.154 79.2652 156C85.8504 157.499 92.7773 158.304 99.9297 158.304C107.082 158.304 114.009 157.499 120.594 156C126.299 161.154 133.893 164.257 142.213 164.141C159.227 163.903 173.118 150.002 173.348 132.989C173.349 132.871 173.35 132.755 173.35 132.638C173.373 123.917 174.411 115.223 176.635 106.791C177.861 102.151 178.481 97.3728 178.48 92.5742C178.48 83.0668 176.064 73.7121 171.723 65.0801C218.631 19.3074 175.849 -22.9176 130.98 18.3434Z" fill="#D19B61"/>
<path d="M161.809 78.0977C164.073 66.5625 156.557 55.3762 145.021 53.1125C133.486 50.8488 122.3 58.3649 120.036 69.9V69.9012L120.036 69.9008C117.746 77.5242 119.083 79.9602 118.123 87.2879C117.098 95.116 115.786 93.1324 113.964 102.415C111.248 116.259 120.268 129.685 134.112 132.402C147.712 135.071 160.901 126.409 163.937 112.977C163.994 112.745 164.049 112.506 164.098 112.254C166.901 97.9727 159.238 91.1965 161.809 78.0977Z" fill="#AF773F"/>
<path d="M115.543 173.109C115.543 185.064 108.552 194.757 99.9288 194.757C91.3054 194.757 84.3147 185.064 84.3147 173.109C84.3147 161.153 91.3054 151.461 99.9288 151.461C108.552 151.461 115.543 161.153 115.543 173.109ZM163.929 52.8723L165.106 50.7867C192.344 25.7398 169 1.9332 144.498 24.4641C142.029 26.7344 139.921 29.123 138.128 31.5918C148.349 36.9477 157.167 44.2949 163.929 52.8723ZM34.8268 50.7551L35.9823 52.8059C42.7526 44.2375 51.5761 36.8996 61.8007 31.5547C60.0132 29.0937 57.9136 26.7129 55.4553 24.4488C30.9714 1.89844 7.60926 25.6867 34.8268 50.7551Z" fill="#FFA1E0"/>
<path d="M143.487 138.544C140.527 127.496 132.251 119.411 122.521 116.711V94.9121C122.521 82.4344 112.406 72.3195 99.9287 72.3195C87.4513 72.3195 77.3361 82.4348 77.3361 94.9121V116.711C67.606 119.411 59.3302 127.496 56.3701 138.544C52.0529 154.655 60.674 170.963 75.6252 174.97C83.79 177.157 92.1494 175.216 98.763 170.386V151.461H101.095V170.386C107.708 175.216 116.068 177.157 124.233 174.97C139.184 170.963 147.804 154.655 143.487 138.544Z" fill="#EADFD6"/>
<path d="M74.5379 158.304C74.5379 157.933 74.6851 157.577 74.9473 157.315C75.2094 157.053 75.5649 156.906 75.9355 156.906C76.3062 156.906 76.6617 157.053 76.9238 157.315C77.186 157.577 77.3332 157.933 77.3332 158.304C77.3332 158.674 77.186 159.03 76.9238 159.292C76.6617 159.554 76.3062 159.701 75.9355 159.701C75.5649 159.701 75.2094 159.554 74.9473 159.292C74.6851 159.03 74.5379 158.674 74.5379 158.304ZM72.7059 144.291C73.0765 144.291 73.432 144.144 73.6942 143.882C73.9563 143.62 74.1035 143.264 74.1035 142.894C74.1035 142.523 73.9563 142.168 73.6942 141.905C73.432 141.643 73.0765 141.496 72.7059 141.496C72.3352 141.496 71.9797 141.643 71.7176 141.905C71.4555 142.168 71.3082 142.523 71.3082 142.894C71.3082 143.264 71.4555 143.62 71.7176 143.882C71.9797 144.144 72.3352 144.291 72.7059 144.291ZM64.1555 154.256C64.5262 154.256 64.8817 154.109 65.1438 153.847C65.4059 153.585 65.5531 153.229 65.5531 152.859C65.5531 152.488 65.4059 152.132 65.1438 151.87C64.8817 151.608 64.5262 151.461 64.1555 151.461C63.7848 151.461 63.4293 151.608 63.1672 151.87C62.9051 152.132 62.7578 152.488 62.7578 152.859C62.7578 153.229 62.9051 153.585 63.1672 153.847C63.4293 154.109 63.7848 154.256 64.1555 154.256ZM123.782 141.496C123.411 141.496 123.055 141.643 122.793 141.905C122.531 142.167 122.384 142.523 122.384 142.893C122.384 143.264 122.531 143.62 122.793 143.882C123.055 144.144 123.411 144.291 123.782 144.291C124.152 144.291 124.508 144.144 124.77 143.882C125.032 143.62 125.179 143.264 125.179 142.893C125.179 142.523 125.032 142.167 124.77 141.905C124.508 141.643 124.152 141.496 123.782 141.496ZM127.011 156.906C126.641 156.906 126.285 157.053 126.023 157.315C125.761 157.577 125.614 157.933 125.614 158.304C125.614 158.674 125.761 159.03 126.023 159.292C126.285 159.554 126.641 159.701 127.011 159.701C127.382 159.701 127.738 159.554 128 159.292C128.262 159.03 128.409 158.674 128.409 158.304C128.409 157.933 128.262 157.577 128 157.315C127.738 157.053 127.382 156.906 127.011 156.906ZM135.562 146.941C135.191 146.941 134.836 147.088 134.573 147.35C134.311 147.612 134.164 147.968 134.164 148.339C134.164 148.709 134.311 149.065 134.573 149.327C134.836 149.589 135.191 149.736 135.562 149.736C135.932 149.736 136.288 149.589 136.55 149.327C136.812 149.065 136.959 148.709 136.959 148.339C136.959 147.968 136.812 147.612 136.55 147.35C136.288 147.088 135.932 146.941 135.562 146.941Z" fill="#AF773F"/>
<path d="M58.6395 82.1203C64.2426 82.1203 68.7848 86.6625 68.7848 92.2656V107.367C68.7848 112.97 64.2426 117.512 58.6395 117.512C53.0363 117.512 48.4941 112.97 48.4941 107.367V92.2656C48.4941 86.6625 53.0363 82.1203 58.6395 82.1203ZM141.217 82.1203C135.614 82.1203 131.072 86.6625 131.072 92.2656V107.367C131.072 112.97 135.614 117.512 141.217 117.512C146.82 117.512 151.363 112.97 151.363 107.367V92.2656C151.363 86.6625 146.82 82.1203 141.217 82.1203ZM108.639 136.823C108.639 136.823 104.347 136.977 100.055 137.04L91.4707 136.823C89.5895 136.787 87.6777 137.579 86.3883 139.143C84.1484 141.862 84.5363 145.881 87.2547 148.121L91.4707 151.595C91.4707 151.595 92.5437 152.479 94.1535 153.217C94.9582 153.482 95.8973 153.898 96.9031 154.153L98.7633 154.374V170.386C99.159 170.097 99.5477 169.799 99.9289 169.492C100.31 169.799 100.699 170.097 101.095 170.386V154.532C101.815 154.466 102.527 154.292 103.207 154.243C104.213 154.229 105.152 153.621 105.957 153.352C107.566 152.645 108.639 151.595 108.639 151.595L113.119 147.209C113.718 146.619 114.187 145.911 114.498 145.13C114.808 144.349 114.952 143.511 114.921 142.671C114.801 139.321 111.988 136.704 108.639 136.823Z" fill="#2B3B47"/>
</svg>
