
<svg display="none" xmlns="http://www.w3.org/2000/svg">
    <symbol width="27" height="29" viewBox="0 0 27 29" id="dog-icon">
        <path d="M20.7404 9.50763L17.6413 5.03091C17.4116 4.6998 17.1063 4.4282 16.7507 4.23862C16.3951 4.04903 15.9995 3.94691 15.5966 3.94073L9.71525 3.85635H9.70312C6.66673 3.85635 4.33703 4.36424 2.83658 6.84291C1.43965 9.15015 0.84375 13.0804 0.84375 19.9844V20.8281H2.77156L1.53056 27.1562H3.25023L4.49123 20.8281H5.0625C6.44054 20.8404 7.76812 20.3102 8.75855 19.352C9.65392 18.4953 10.2998 17.3232 10.6263 15.9625L10.6293 15.9503L12.0765 9.01562H10.3526L8.98262 15.5804C8.56538 17.3038 7.31774 19.1406 5.0625 19.1406H2.53441C2.58024 13.1676 3.12409 9.62634 4.28019 7.71656C5.2505 6.11344 6.66879 5.54438 9.69727 5.54359L15.5723 5.62797C15.7066 5.63003 15.8385 5.66406 15.957 5.72726C16.0756 5.79046 16.1773 5.88099 16.2539 5.99136L19.7596 11.0549L24.4688 11.8398V12.7341L23.6834 16.9223C23.4517 18.1584 23.0555 18.7811 21.4307 18.9763L14.7701 20.1158L14.726 27.1562H16.4135L16.4487 21.5404L21.6536 20.6492C22.8327 20.5042 23.7027 20.1242 24.3128 19.4878C24.8343 18.9437 25.1517 18.2486 25.3421 17.2333L26.1562 12.8909V10.4102L20.7404 9.50763Z" fill="white"/>
    </symbol>
</svg>