
<svg display="none" xmlns="http://www.w3.org/2000/svg">
    <symbol width="27" height="29" viewBox="0 0 27 29" id="dog-icon">
        <path d="M20.7404 9.50763L17.6413 5.03091C17.4116 4.6998 17.1063 4.4282 16.7507 4.23862C16.3951 4.04903 15.9995 3.94691 15.5966 3.94073L9.71525 3.85635H9.70312C6.66673 3.85635 4.33703 4.36424 2.83658 6.84291C1.43965 9.15015 0.84375 13.0804 0.84375 19.9844V20.8281H2.77156L1.53056 27.1562H3.25023L4.49123 20.8281H5.0625C6.44054 20.8404 7.76812 20.3102 8.75855 19.352C9.65392 18.4953 10.2998 17.3232 10.6263 15.9625L10.6293 15.9503L12.0765 9.01562H10.3526L8.98262 15.5804C8.56538 17.3038 7.31774 19.1406 5.0625 19.1406H2.53441C2.58024 13.1676 3.12409 9.62634 4.28019 7.71656C5.2505 6.11344 6.66879 5.54438 9.69727 5.54359L15.5723 5.62797C15.7066 5.63003 15.8385 5.66406 15.957 5.72726C16.0756 5.79046 16.1773 5.88099 16.2539 5.99136L19.7596 11.0549L24.4688 11.8398V12.7341L23.6834 16.9223C23.4517 18.1584 23.0555 18.7811 21.4307 18.9763L14.7701 20.1158L14.726 27.1562H16.4135L16.4487 21.5404L21.6536 20.6492C22.8327 20.5042 23.7027 20.1242 24.3128 19.4878C24.8343 18.9437 25.1517 18.2486 25.3421 17.2333L26.1562 12.8909V10.4102L20.7404 9.50763Z" fill="white"/>
    </symbol>

    <symbol  viewBox="0 0 45 36" id="Feed-icon">
        <path d="M18.084 22.125L30.4197 9.79148C29.9061 9.27798 29.527 8.64574 29.316 7.95075C29.1051 7.25576 29.0688 6.51947 29.2104 5.8071C29.3519 5.09473 29.667 4.42827 30.1276 3.86674C30.5883 3.3052 31.1803 2.86594 31.8512 2.58785C32.5222 2.30976 33.2514 2.20143 33.9742 2.27245C34.697 2.34347 35.3912 2.59165 35.9952 2.99501C36.5992 3.39836 37.0944 3.94445 37.4369 4.5849C37.7795 5.22534 37.9588 5.94038 37.959 6.66668C38.6855 6.66617 39.4009 6.84486 40.0418 7.18694C40.6827 7.52901 41.2293 8.0239 41.6332 8.62775C42.0372 9.23161 42.2859 9.92577 42.3574 10.6487C42.4289 11.3717 42.3209 12.1011 42.0431 12.7724C41.7653 13.4437 41.3261 14.036 40.7646 14.497C40.2031 14.958 39.5366 15.2733 38.8241 15.4151C38.1115 15.5569 37.3751 15.5207 36.6799 15.3098C35.9847 15.0989 35.3522 14.7197 34.8386 14.2059L26.9173 22.125"/>
        <path d="M22.5002 17.7083L14.5811 9.79148C15.0948 9.27798 15.4739 8.64574 15.6848 7.95075C15.8958 7.25576 15.9321 6.51947 15.7905 5.8071C15.649 5.09473 15.3339 4.42827 14.8733 3.86673C14.4126 3.3052 13.8206 2.86594 13.1496 2.58785C12.4787 2.30976 11.7495 2.20143 11.0267 2.27245C10.3039 2.34347 9.60971 2.59165 9.00571 2.99501C8.40172 3.39836 7.90651 3.94445 7.56396 4.5849C7.22142 5.22534 7.0421 5.94038 7.04189 6.66668C6.3154 6.66617 5.6 6.84486 4.95909 7.18694C4.31818 7.52901 3.77155 8.0239 3.36763 8.62775C2.96372 9.2316 2.715 9.92577 2.64351 10.6487C2.57202 11.3717 2.67997 12.1011 2.95779 12.7724C3.23562 13.4437 3.67474 14.036 4.23624 14.497C4.79774 14.958 5.46429 15.2733 6.17681 15.4151C6.88932 15.5569 7.62581 15.5207 8.32101 15.3098C9.0162 15.0989 9.64864 14.7197 10.1623 14.2059L18.0836 22.125M2.62522 33.1667H42.3752C41.9888 29.4766 42.2736 25.7798 37.9586 22.125H7.04189C4.09744 24.3334 2.62522 28.0139 2.62522 33.1667Z" />
    </symbol>

    <symbol viewBox="0 0 41 48" id="Stroll-icon"  >
        <path d="M9.62734 0.964844L11.5098 10.3426C10.258 11.4564 9.29375 12.9006 8.63672 14.5652L0.942383 13.7217L7.23662 19.9102C6.98408 22.1911 7.23955 24.6995 8.04307 27.2009L3.93828 32.4953L10.5807 32.3957C12.0572 34.5617 13.8725 36.2899 15.817 37.4701L16.86 46.2881L20.8572 39.5824C22.5657 40.0639 24.2875 40.1625 25.9239 39.8273L32.1378 47.0204L30.2572 37.6532C31.5126 36.5375 32.4789 35.0899 33.1368 33.4208L40.8226 34.2634L34.1648 27.7175C34.1693 25.7131 33.845 23.6016 33.1717 21.4935L37.8264 15.4896L30.2907 15.6026C29.0442 13.7846 27.5842 12.2452 26.0091 11.0354L24.905 1.69687L20.9046 8.40781C19.1992 7.92852 17.4808 7.83066 15.8474 8.16514L9.62734 0.964844ZM19.5686 10.0908C23.9066 10.0879 28.6311 13.4177 31.257 18.7902C34.5207 25.468 33.342 32.8454 28.6691 35.5769C31.293 31.7841 31.4782 25.6825 28.7295 20.0587C25.9809 14.435 21.0791 10.8858 16.5114 10.7019C17.4841 10.2894 18.5148 10.0916 19.5686 10.0908ZM16.5429 12.7256C20.5485 12.7195 24.9032 15.7914 27.3316 20.7602C30.44 27.1202 29.1965 34.14 24.5478 36.473C24.4514 36.5213 24.3539 36.5664 24.2561 36.6101C20.0554 36.3754 15.5827 33.097 13.0549 27.9247C10.5269 22.7525 10.6641 17.1606 13.0256 13.6327C13.1194 13.5798 13.2143 13.5291 13.3104 13.4804C14.3272 12.9702 15.4215 12.7273 16.5429 12.7256Z" />
    </symbol>

    <symbol viewBox="0 0 50 50" id="Peculiarities-icon"   >
        <path d="M21.9998 35.175L32.3748 41.45C34.2748 42.6 36.5998 40.9 36.0998 38.75L33.3498 26.95L42.5248 19C44.1998 17.55 43.2998 14.8 41.0998 14.625L29.0248 13.6L24.2998 2.45002C23.4498 0.425024 20.5498 0.425024 19.6998 2.45002L14.9748 13.575L2.89982 14.6C0.699816 14.775 -0.200185 17.525 1.47482 18.975L10.6498 26.925L7.89982 38.725C7.39982 40.875 9.72481 42.575 11.6248 41.425L21.9998 35.175Z" />
    </symbol>

    <symbol viewBox="0 0 43 43"  id="Genesis-icon" > 
        <path d="M9.06192 32.7983L14.2219 24.5459M18.0256 18.4596L23.1803 10.2107M18.0328 24.5548L23.1856 32.7965M26.9876 10.2125L32.1493 18.4721M10.7497 35.8334C10.7497 34.883 10.3721 33.9716 9.70014 33.2996C9.02814 32.6276 8.1167 32.25 7.16634 32.25C6.21598 32.25 5.30455 32.6276 4.63254 33.2996C3.96054 33.9716 3.58301 34.883 3.58301 35.8334C3.58301 36.7837 3.96054 37.6952 4.63254 38.3672C5.30455 39.0392 6.21598 39.4167 7.16634 39.4167C8.1167 39.4167 9.02814 39.0392 9.70014 38.3672C10.3721 37.6952 10.7497 36.7837 10.7497 35.8334ZM28.6663 7.16671C28.6663 6.21635 28.2888 5.30491 27.6168 4.63291C26.9448 3.9609 26.0334 3.58337 25.083 3.58337C24.1326 3.58337 23.2212 3.9609 22.5492 4.63291C21.8772 5.30491 21.4997 6.21635 21.4997 7.16671C21.4997 8.11707 21.8772 9.0285 22.5492 9.70051C23.2212 10.3725 24.1326 10.75 25.083 10.75C26.0334 10.75 26.9448 10.3725 27.6168 9.70051C28.2888 9.0285 28.6663 8.11707 28.6663 7.16671ZM28.6663 35.8334C28.6663 34.883 28.2888 33.9716 27.6168 33.2996C26.9448 32.6276 26.0334 32.25 25.083 32.25C24.1326 32.25 23.2212 32.6276 22.5492 33.2996C21.8772 33.9716 21.4997 34.883 21.4997 35.8334C21.4997 36.7837 21.8772 37.6952 22.5492 38.3672C23.2212 39.0392 24.1326 39.4167 25.083 39.4167C26.0334 39.4167 26.9448 39.0392 27.6168 38.3672C28.2888 37.6952 28.6663 36.7837 28.6663 35.8334ZM19.708 21.5C19.708 20.5497 19.3305 19.6382 18.6585 18.9662C17.9865 18.2942 17.075 17.9167 16.1247 17.9167C15.1743 17.9167 14.2629 18.2942 13.5909 18.9662C12.9189 19.6382 12.5413 20.5497 12.5413 21.5C12.5413 22.4504 12.9189 23.3618 13.5909 24.0338C14.2629 24.7058 15.1743 25.0834 16.1247 25.0834C17.075 25.0834 17.9865 24.7058 18.6585 24.0338C19.3305 23.3618 19.708 22.4504 19.708 21.5ZM37.6247 21.5C37.6247 20.5497 37.2471 19.6382 36.5751 18.9662C35.9031 18.2942 34.9917 17.9167 34.0413 17.9167C33.091 17.9167 32.1795 18.2942 31.5075 18.9662C30.8355 19.6382 30.458 20.5497 30.458 21.5C30.458 22.4504 30.8355 23.3618 31.5075 24.0338C32.1795 24.7058 33.091 25.0834 34.0413 25.0834C34.9917 25.0834 35.9031 24.7058 36.5751 24.0338C37.2471 23.3618 37.6247 22.4504 37.6247 21.5Z" stroke="black" stroke-width="4" stroke-linecap="round" stroke-linejoin="round"/>
    </symbol>

    <symbol  viewBox="0 0 48 48"  id="color-icon" >
        <path d="M10.16 18.5C10.3968 16.9028 11.0293 15.3903 12 14.1L4.86 6.98C2.03579 10.1927 0.330386 14.2352 0 18.5H10.16ZM14.1 12C15.3923 11.0364 16.9047 10.4109 18.5 10.18V0C14.2352 0.330386 10.1927 2.03579 6.98 4.86L14.1 12ZM21.5 0V10C23.1473 10.2676 24.6975 10.9566 26 12L33.12 4.88C29.8832 2.0286 25.8022 0.314724 21.5 0ZM12 26C11.0364 24.7077 10.4109 23.1953 10.18 21.6H0C0.307886 25.8553 1.98478 29.8967 4.78 33.12L12 26ZM18.5 29.84C16.9028 29.6032 15.3903 28.9707 14.1 28L6.98 35.14C10.1927 37.9642 14.2352 39.6696 18.5 40V29.84ZM28 14.1C28.9636 15.3923 29.5891 16.9047 29.82 18.5H39.82C39.5121 14.2447 37.8352 10.2033 35.04 6.98L28 14.1ZM26 28C24.7077 28.9636 23.1953 29.5891 21.6 29.82V39.82C25.8553 39.5121 29.8967 37.8352 33.12 35.04L26 28ZM29.84 21.5C29.6195 23.1321 28.9862 24.681 28 26L35.12 33.12C37.9714 29.8832 39.6853 25.8022 40 21.5H29.84Z" />
    </symbol>

    <symbol viewBox="0 0 48 48"  id="Dimensions-icon" >   
        <path d="M26 13.98H32L24 6L16 13.98H22V34.02H16L24 42L32 34.02H26V13.98Z" />
    </symbol>

    <symbol viewBox="0 0 36 23" id="arrow-icon" >   
    <path d="M35.3842 11.6216L24.2588 22.0287C23.969 22.2997 23.4997 22.2997 23.21 22.0287C22.9202 21.7576 22.9202 21.3186 23.21 21.0476L33.0694 11.8249L0.741723 11.8249C0.331749 11.8249 1.00162e-06 11.5146 1.03746e-06 11.1311C1.07331e-06 10.7476 0.331749 10.4372 0.741723 10.4372L33.0694 10.4372L23.21 1.2146C22.9202 0.94356 22.9202 0.504515 23.21 0.233541C23.3548 0.0980568 23.5446 0.0302792 23.7344 0.0302792C23.9242 0.0302792 24.1139 0.0980569 24.2588 0.233542L35.3843 10.6406C35.674 10.9115 35.674 11.3506 35.3842 11.6216Z" fill="black"/>
    </symbol>
    
</svg>
